HIERARCHY
ROOT joint_0
{
	OFFSET -212.520721 0.000000 434.227997
	CHANNELS 6 Xposition Yposition Zposition Zrotation Yrotation Xrotation 
	JOINT joint_1
	{
		OFFSET 2.354145 88.354317 -0.841381
		CHANNELS 3 Zrotation Yrotation Xrotation
		JOINT joint_2
		{
			OFFSET 0.103458 1.857827 10.548503
			CHANNELS 3 Zrotation Yrotation Xrotation
			JOINT joint_3
			{
				OFFSET 43.499992 -0.000030 -0.000009
				CHANNELS 3 Zrotation Yrotation Xrotation
				JOINT joint_4
				{
					OFFSET 42.372177 0.000008 -0.000005
					CHANNELS 3 Zrotation Yrotation Xrotation
					JOINT joint_5
					{
						OFFSET 17.300001 0.000000 -0.000004
						CHANNELS 3 Zrotation Yrotation Xrotation
						End Site
						{
							OFFSET 0.000000 0.000000 0.000000
						}
					}
				}
			}
		}
		JOINT joint_6
		{
			OFFSET 0.103458 1.857823 -10.548501
			CHANNELS 3 Zrotation Yrotation Xrotation
			JOINT joint_7
			{
				OFFSET 43.500053 -0.000029 0.000010
				CHANNELS 3 Zrotation Yrotation Xrotation
				JOINT joint_8
				{
					OFFSET 42.372261 -0.000003 0.000013
					CHANNELS 3 Zrotation Yrotation Xrotation
					JOINT joint_9
					{
						OFFSET 17.299995 -0.000004 0.000004
						CHANNELS 3 Zrotation Yrotation Xrotation
						End Site
						{
							OFFSET 0.000000 0.000000 0.000000
						}
					}
				}
			}
		}
		JOINT joint_10
		{
			OFFSET 6.901969 -2.603732 -0.000000
			CHANNELS 3 Zrotation Yrotation Xrotation
			JOINT joint_11
			{
				OFFSET 12.588098 0.000005 -0.000001
				CHANNELS 3 Zrotation Yrotation Xrotation
				JOINT joint_12
				{
					OFFSET 12.343197 0.000003 -0.000000
					CHANNELS 3 Zrotation Yrotation Xrotation
					JOINT joint_13
					{
						OFFSET 25.832895 -0.000009 0.000001
						CHANNELS 3 Zrotation Yrotation Xrotation
						JOINT joint_14
						{
							OFFSET 11.766603 0.000006 0.000001
							CHANNELS 3 Zrotation Yrotation Xrotation
							End Site
							{
								OFFSET 0.000000 0.000000 0.000000
							}
						}
					}
					JOINT joint_15
					{
						OFFSET 19.745884 -1.480371 6.000109
						CHANNELS 3 Zrotation Yrotation Xrotation
						JOINT joint_16
						{
							OFFSET 11.284123 -0.000007 -0.000016
							CHANNELS 3 Zrotation Yrotation Xrotation
							JOINT joint_17
							{
								OFFSET 33.000038 0.000004 0.000024
								CHANNELS 3 Zrotation Yrotation Xrotation
								JOINT joint_18
								{
									OFFSET 25.200039 0.000009 0.000029
									CHANNELS 3 Zrotation Yrotation Xrotation
									End Site
									{
										OFFSET 0.000000 0.000000 0.000000
									}
								}
							}
						}
					}
					JOINT joint_19
					{
						OFFSET 19.746128 -1.480379 -6.000068
						CHANNELS 3 Zrotation Yrotation Xrotation
						JOINT joint_20
						{
							OFFSET 11.284137 -0.000013 -0.000014
							CHANNELS 3 Zrotation Yrotation Xrotation
							JOINT joint_21
							{
								OFFSET 33.000095 0.000013 0.000009
								CHANNELS 3 Zrotation Yrotation Xrotation
								JOINT joint_22
								{
									OFFSET 25.199757 0.000148 0.000448
									CHANNELS 3 Zrotation Yrotation Xrotation
									End Site
									{
										OFFSET 0.000000 0.000000 0.000000
									}
								}
							}
						}
					}
				}
			}
		}
	}
}
MOTION
Frames: 9
Frame Time: 0.016667
-212.520721 0.000000 434.227997 0.000000 -8.332734 0.000000 94.902847 0.572021 89.719429 -179.827133 3.872195 174.522446 -23.233002 -0.514978 0.140688 93.278717 0.279909 -0.664651 21.454559 0.003090 -0.000002 147.987564 3.480403 177.432022 -56.434864 -5.691527 6.105005 87.073380 -3.270897 6.086480 21.454561 -0.003109 -0.000019 6.865388 -0.342406 -1.601820 3.675689 -1.047977 -3.260539 3.323072 -1.199097 -3.317528 10.391111 -5.453510 0.673708 -1.611403 2.014929 -1.911598 -177.797928 -76.237518 -3.705334 -42.705421 47.854023 10.603682 -54.657387 -13.927187 1.845472 5.052217 -5.048006 46.654835 -167.268097 74.271034 14.434414 -3.396221 -53.911068 -38.343788 -37.643833 14.723881 -1.399724 6.101217 3.419619 -14.674747 
-212.768173 0.000000 435.091248 0.000000 -8.923233 0.000000 94.793434 0.500637 89.753159 -178.957855 3.712950 174.898071 -22.763325 -0.811410 -0.304028 93.601845 0.585471 -0.870951 21.454559 0.003090 -0.000002 147.695892 3.370349 177.524734 -54.144230 -5.505298 6.546144 87.011482 -3.608121 5.955951 21.454561 -0.003110 -0.000019 6.844442 -0.299149 -1.620494 3.632553 -0.954094 -3.298288 3.278536 -1.103083 -3.357888 10.614725 -5.555105 0.777245 -2.019781 1.896180 -1.806828 -177.617264 -76.398903 -3.894970 -43.543640 47.710838 9.226095 -57.269840 -14.164059 1.954105 4.453462 -5.312028 47.046246 -167.120209 74.235466 14.584408 -2.222836 -54.847431 -39.416912 -35.792732 14.382051 -1.338060 6.797260 2.736072 -12.925988 
-213.044571 0.000000 435.963531 0.000000 -9.489536 0.000000 94.690018 0.425619 89.829910 -178.145935 3.560688 175.368561 -22.382181 -1.065714 -0.778360 93.958527 0.916884 -1.083465 21.454557 0.003090 -0.000002 147.465836 3.264219 177.617645 -51.675789 -5.334373 7.008141 86.985649 -3.970409 5.793799 21.454561 -0.003110 -0.000019 6.825440 -0.259827 -1.636032 3.595209 -0.856580 -3.329839 3.240939 -1.000031 -3.390759 10.750203 -5.664655 0.907913 -2.370750 1.761245 -1.682039 -177.462082 -76.548103 -4.060228 -44.332397 47.492344 7.910450 -59.443466 -14.214941 2.037071 3.946383 -5.479650 47.115040 -167.006363 74.241890 14.696627 -0.973279 -55.491379 -40.852112 -34.191288 14.019906 -1.283620 7.374894 1.942203 -11.628667 
-213.351089 0.000000 436.843933 0.000000 -10.031597 0.000000 94.517723 0.372260 89.856941 -177.306564 3.346874 175.861877 -22.008310 -1.288688 -1.272050 94.313728 1.244582 -1.382798 21.454557 0.003090 -0.000002 147.282959 3.100021 177.656433 -49.210033 -5.136450 7.445140 86.862671 -4.364455 5.500336 21.454561 -0.003110 -0.000019 6.814152 -0.210891 -1.653669 3.574455 -0.720668 -3.360060 3.220781 -0.855283 -3.418406 10.819697 -5.755867 1.100294 -2.660435 1.576540 -1.490628 -177.359970 -76.651505 -4.169045 -44.974251 47.217400 6.741247 -61.177052 -14.181866 2.099896 3.515460 -5.632754 47.009888 -166.942383 74.291145 14.757067 0.244797 -55.891762 -42.544075 -32.800541 13.697332 -1.237680 7.837099 1.052172 -10.872228 
-213.685486 0.000000 437.733093 0.000000 -10.550036 0.000000 94.329102 0.367740 89.858452 -176.356506 3.123576 176.357742 -21.562202 -1.498766 -1.763441 94.637482 1.551981 -1.743153 21.454557 0.003090 -0.000002 147.195908 2.958562 177.765060 -46.919441 -4.950375 7.838661 86.542305 -4.746871 5.099030 21.454561 -0.003109 -0.000019 6.817726 -0.162727 -1.672433 3.585319 -0.583106 -3.393404 3.232612 -0.707190 -3.448093 10.842862 -5.833117 1.319219 -2.896668 1.387729 -1.264505 -177.411423 -76.737213 -4.118918 -45.443336 46.898228 5.835168 -62.492832 -14.162276 2.151467 3.125741 -5.790937 46.888256 -166.913055 74.359253 14.782941 1.431951 -56.124691 -44.343727 -31.594919 13.411949 -1.198657 8.150168 0.119865 -10.754937 
-214.047195 0.000000 438.630920 0.000000 -11.045665 0.000000 94.194031 0.415605 89.823509 -175.303879 2.960343 176.790146 -21.099777 -1.692436 -2.243902 94.974319 1.850944 -2.107971 21.454557 0.003091 -0.000002 147.231781 2.840970 177.952515 -44.815445 -4.791523 8.297048 86.203033 -5.122277 4.743271 21.454561 -0.003109 -0.000019 6.835280 -0.127213 -1.690154 3.623373 -0.481776 -3.426016 3.270159 -0.599260 -3.476275 10.886937 -5.915864 1.547877 -3.030972 1.209939 -1.028151 -177.604828 -76.787308 -3.924504 -45.740314 46.543415 5.138679 -63.227985 -14.065106 2.173107 2.814883 -5.914314 46.814682 -166.844391 74.423538 14.850618 2.624908 -56.280289 -46.161346 -30.554354 13.161383 -1.165441 8.356614 -0.834009 -11.166575 
-214.435104 0.000000 439.538300 0.000000 -11.518801 0.000000 94.070869 0.500328 89.739494 -174.251221 2.839003 177.093567 -20.785339 -1.799958 -2.723442 95.433891 2.158402 -2.424714 21.454557 0.003091 -0.000002 147.387772 2.675556 178.238068 -42.997467 -4.702827 8.847305 86.292130 -5.438474 4.731086 21.454561 -0.003109 -0.000019 6.854589 -0.086983 -1.701978 3.664700 -0.387137 -3.444100 3.311896 -0.504288 -3.491146 11.027194 -6.047440 1.814284 -3.047317 1.022316 -0.751419 -177.710953 -76.774513 -3.817566 -45.895470 46.181305 4.642386 -63.509525 -14.014837 2.180234 2.603965 -6.071910 46.806358 -166.727402 74.477188 14.964824 3.862217 -56.329189 -47.938705 -29.709637 12.937122 -1.134861 8.482291 -1.781745 -11.822727 
-214.845749 0.000000 440.455963 0.000000 -11.969956 0.000000 93.893173 0.596254 89.584892 -173.213638 2.666082 177.250153 -20.531309 -1.792489 -3.148371 95.945183 2.421839 -2.810888 21.454557 0.003091 -0.000002 147.615112 2.433031 178.760010 -41.670433 -4.707839 9.128818 86.201271 -5.609009 4.559292 21.454561 -0.003109 -0.000019 6.870795 -0.035269 -1.714131 3.702073 -0.271548 -3.463932 3.352563 -0.389737 -3.509291 11.241070 -6.116297 2.140095 -2.964974 0.780833 -0.378743 -177.850372 -76.687691 -3.669698 -45.820213 45.810169 4.403410 -63.380756 -14.044375 2.178392 2.468880 -6.396920 46.815975 -166.514374 74.503563 15.174939 5.029642 -56.318439 -49.572426 -28.979671 12.757188 -1.107612 8.573786 -2.511130 -12.522048 
-215.273712 0.000000 441.383636 0.000000 -12.400335 0.000000 93.669853 0.650460 89.375122 -172.245331 2.430056 177.048798 -20.155546 -1.678525 -3.428366 96.301605 2.572491 -3.257887 21.454557 0.003091 -0.000002 147.839752 2.275534 179.462051 -40.977783 -4.762931 8.797834 84.806961 -5.485492 3.902228 21.454561 -0.003109 -0.000019 6.877686 -0.001501 -1.736665 3.721501 -0.166515 -3.503213 3.377384 -0.274177 -3.542681 11.460288 -6.025218 2.459069 -2.740199 0.485092 0.034958 -177.943802 -76.608276 -3.569356 -45.511578 45.447468 4.507257 -62.799618 -14.159565 2.165692 2.360080 -6.786148 46.740295 -166.194366 74.506210 15.500777 6.072203 -56.368134 -50.875275 -28.299591 12.576175 -1.082003 8.683943 -2.852653 -13.155145 
